<svg id="Layer_1" enable-background="new 0 0 512 512" height="512" viewBox="0 0 512 512" width="512" xmlns="http://www.w3.org/2000/svg"><g><g><path d="m419.093 452h-16c-17.673 0-32-14.327-32-32 0-17.673 14.327-32 32-32h16c17.673 0 32 14.327 32 32 0 17.673-14.327 32-32 32z" fill="#cd3232"/></g><g><path d="m435.093 388h-272c-4.418 0-8-3.582-8-8 0-44.112 35.888-80 80-80h56c4.418 0 8 3.582 8 8s-3.582 8-8 8h-56c-32.58 0-59.553 24.473-63.502 56h263.502c4.418 0 8 3.582 8 8s-3.581 8-8 8z" fill="#32283c"/></g><g><path d="m435.093 388h-368c-4.418 0-8-3.582-8-8 0-44.112 35.888-80 80-80h56c4.418 0 8 3.582 8 8s-3.582 8-8 8h-56c-32.58 0-59.553 24.473-63.502 56h359.502c4.418 0 8 3.582 8 8s-3.581 8-8 8z" fill="#463c4b"/></g><path d="m191.151 89.47 11.51 34.53h16.865l-13.196-39.59c-3.273-9.815-12.423-16.41-22.769-16.41h-36.468v16h36.468c3.449 0 6.499 2.198 7.59 5.47z" fill="#32283c"/><g><path d="m171.093 92h-24c-8.837 0-16-7.163-16-16 0-8.837 7.163-16 16-16h24c8.837 0 16 7.163 16 16 0 8.837-7.163 16-16 16z" fill="#32283c"/></g><path d="m107.619 124.279-13.289-39.869c-3.273-9.815-12.423-16.41-22.769-16.41h-36.468v16h36.468c3.449 0 6.499 2.198 7.59 5.47l15.786 47.359c1.263-6.195 6.168-11.326 12.682-12.55z" fill="#463c4b"/><g><path d="m186.113 145.06 49.687 149.06c4.355 13.066 16.584 21.88 30.358 21.88h145.871c13.774 0 26.002-8.814 30.358-21.881l49.687-149.06c3.453-10.361-4.258-21.06-15.179-21.06h-275.603c-10.921.001-18.632 10.7-15.179 21.061z" fill="#cd3232"/></g><g><path d="m95.446 145.06 49.687 149.06c4.356 13.066 16.584 21.88 30.358 21.88h145.871c13.774 0 26.002-8.814 30.358-21.881l49.687-149.06c3.453-10.361-4.258-21.06-15.179-21.06h-275.603c-10.921.001-18.632 10.7-15.179 21.061z" fill="#ff4646"/></g><g><g><g><path d="m320.427 204h-16c-4.418 0-8-3.582-8-8v-32c0-4.418 3.582-8 8-8h16c4.418 0 8 3.582 8 8v32c0 4.418-3.582 8-8 8z" fill="#e6e6eb"/></g><g><path d="m256.427 204h-16c-4.418 0-8-3.582-8-8v-32c0-4.418 3.582-8 8-8h16c4.418 0 8 3.582 8 8v32c0 4.418-3.582 8-8 8z" fill="#e6e6eb"/></g><g><path d="m192.427 204h-16c-4.418 0-8-3.582-8-8v-32c0-4.418 3.582-8 8-8h16c4.418 0 8 3.582 8 8v32c0 4.418-3.582 8-8 8z" fill="#e6e6eb"/></g></g><g><g><path d="m320.427 284h-16c-4.418 0-8-3.582-8-8v-32c0-4.418 3.582-8 8-8h16c4.418 0 8 3.582 8 8v32c0 4.418-3.582 8-8 8z" fill="#e6e6eb"/></g><g><path d="m256.427 284h-16c-4.418 0-8-3.582-8-8v-32c0-4.418 3.582-8 8-8h16c4.418 0 8 3.582 8 8v32c0 4.418-3.582 8-8 8z" fill="#e6e6eb"/></g><g><path d="m192.427 284h-16c-4.418 0-8-3.582-8-8v-32c0-4.418 3.582-8 8-8h16c4.418 0 8 3.582 8 8v32c0 4.418-3.582 8-8 8z" fill="#e6e6eb"/></g></g></g><g><path d="m59.093 92h-24c-8.837 0-16-7.163-16-16 0-8.837 7.163-16 16-16h24c8.837 0 16 7.163 16 16 0 8.837-7.163 16-16 16z" fill="#ff4646"/></g><g><circle cx="403.093" cy="420" fill="#ff4646" r="32"/></g><g><circle cx="403.093" cy="420" fill="#e6e6eb" r="16"/></g><g><path d="m107.093 452h-16c-17.673 0-32-14.327-32-32 0-17.673 14.327-32 32-32h16c17.673 0 32 14.327 32 32 0 17.673-14.327 32-32 32z" fill="#cd3232"/></g><g><circle cx="91.093" cy="420" fill="#ff4646" r="32"/></g><g><circle cx="91.093" cy="420" fill="#e6e6eb" r="16"/></g></g></svg>